<svg xmlns="http://www.w3.org/2000/svg" xmlns:xlink="http://www.w3.org/1999/xlink" width="160" height="160" viewBox="0 0 540 380"><title>Memory Alpha logo</title><defs><linearGradient id="f"><stop offset="0" stop-color="#838484"/><stop offset=".247" stop-color="#fff"/><stop offset="1" stop-color="#e0dedd"/></linearGradient><linearGradient id="c"><stop offset="0" stop-color="#9b0000"/><stop offset="1" stop-color="#f30000"/></linearGradient><linearGradient id="k"><stop offset="0" stop-color="#efeeef"/><stop offset=".582" stop-color="#fce15d"/><stop offset=".8" stop-color="#77611f"/><stop offset="1" stop-color="#d5ad3b"/></linearGradient><linearGradient id="a"><stop offset="0" stop-color="#838484"/><stop offset=".52" stop-color="#fff"/><stop offset="1" stop-color="#e0dedd"/></linearGradient><linearGradient id="b"><stop offset="0" stop-color="#efeeef"/><stop offset=".439" stop-color="#fce15d"/><stop offset=".737" stop-color="#77611f"/><stop offset="1" stop-color="#d5ad3b"/></linearGradient><filter id="o" width="1.5" height="1.5" x="-.25" y="-.25" color-interpolation-filters="sRGB"><feGaussianBlur in="SourceAlpha" stdDeviation="1" result="blur"/><feColorMatrix result="bluralpha" values="1 0 0 0 0 0 1 0 0 0 0 0 1 0 0 0 0 0 0.5 0"/><feOffset in="bluralpha" dy="2" result="offsetBlur"/><feMerge><feMergeNode in="offsetBlur"/><feMergeNode in="SourceGraphic"/></feMerge></filter><filter id="Y" width="1.5" height="1.5" x="-.25" y="-.25" color-interpolation-filters="sRGB"><feGaussianBlur in="SourceAlpha" stdDeviation="1" result="blur"/><feColorMatrix result="bluralpha" values="1 0 0 0 0 0 1 0 0 0 0 0 1 0 0 0 0 0 0.5 0"/><feOffset in="bluralpha" dy="1" result="offsetBlur"/><feMerge><feMergeNode in="offsetBlur"/><feMergeNode in="SourceGraphic"/></feMerge></filter><linearGradient id="e"><stop offset="0" stop-color="#838484"/><stop offset=".52" stop-color="#fff"/><stop offset="1" stop-color="#e0dedd"/></linearGradient><linearGradient id="d"><stop offset="0" stop-color="#838484"/><stop offset=".52" stop-color="#fff"/><stop offset="1" stop-color="#e0dedd"/></linearGradient><linearGradient id="g"><stop offset="0" stop-color="#838484"/><stop offset=".52" stop-color="#fff"/><stop offset="1" stop-color="#e0dedd"/></linearGradient><linearGradient id="h"><stop offset="0" stop-color="#838484"/><stop offset=".52" stop-color="#fff"/><stop offset="1" stop-color="#e0dedd"/></linearGradient><linearGradient id="i"><stop offset="0" stop-color="#838484"/><stop offset=".52" stop-color="#fff"/><stop offset="1" stop-color="#e0dedd"/></linearGradient><linearGradient id="j"><stop offset="0" stop-color="#838484"/><stop offset=".247" stop-color="#fff"/><stop offset="1" stop-color="#e0dedd"/></linearGradient><filter id="O" width="1.5" height="1.5" x="-.25" y="-.25" color-interpolation-filters="sRGB"><feGaussianBlur in="SourceAlpha" stdDeviation="1" result="blur"/><feColorMatrix result="bluralpha" values="1 0 0 0 0 0 1 0 0 0 0 0 1 0 0 0 0 0 0.5 0"/><feOffset in="bluralpha" dy="1" result="offsetBlur"/><feMerge><feMergeNode in="offsetBlur"/><feMergeNode in="SourceGraphic"/></feMerge></filter><filter id="H" width="1.5" height="1.5" x="-.25" y="-.25" color-interpolation-filters="sRGB"><feGaussianBlur in="SourceAlpha" stdDeviation="1" result="blur"/><feColorMatrix result="bluralpha" values="1 0 0 0 0 0 1 0 0 0 0 0 1 0 0 0 0 0 0.5 0"/><feOffset in="bluralpha" dy="1" result="offsetBlur"/><feMerge><feMergeNode in="offsetBlur"/><feMergeNode in="SourceGraphic"/></feMerge></filter><filter id="W" width="1.5" height="1.5" x="-.25" y="-.25" color-interpolation-filters="sRGB"><feGaussianBlur in="SourceAlpha" stdDeviation="1" result="blur"/><feColorMatrix result="bluralpha" values="1 0 0 0 0 0 1 0 0 0 0 0 1 0 0 0 0 0 0.8 0"/><feOffset in="bluralpha" dy="1" result="offsetBlur"/><feMerge><feMergeNode in="offsetBlur"/><feMergeNode in="SourceGraphic"/></feMerge></filter><linearGradient xlink:href="#a" id="l" gradientUnits="userSpaceOnUse" x1="138" y1="118.362" x2="263" y2="52.362"/><linearGradient xlink:href="#a" id="m" gradientUnits="userSpaceOnUse" x1="261" y1="58.362" x2="138" y2="115.362"/><linearGradient xlink:href="#b" id="n" gradientUnits="userSpaceOnUse" x1="237.345" y1="24.433" x2="170.786" y2="80.059"/><linearGradient xlink:href="#a" id="r" gradientUnits="userSpaceOnUse" x1="455.489" y1="45.36" x2="340.223" y2="58.105"/><linearGradient xlink:href="#a" id="s" gradientUnits="userSpaceOnUse" x1="455.489" y1="45.36" x2="340.223" y2="58.105"/><linearGradient xlink:href="#a" id="t" gradientUnits="userSpaceOnUse" x1="455.489" y1="45.36" x2="340.223" y2="58.105"/><linearGradient xlink:href="#a" id="u" gradientUnits="userSpaceOnUse" x1="455.489" y1="45.36" x2="340.223" y2="58.105"/><linearGradient xlink:href="#a" id="v" gradientUnits="userSpaceOnUse" x1="455.489" y1="45.36" x2="340.223" y2="58.105"/><linearGradient xlink:href="#a" id="w" gradientUnits="userSpaceOnUse" x1="455.489" y1="45.36" x2="340.223" y2="58.105"/><linearGradient xlink:href="#a" id="q" gradientUnits="userSpaceOnUse" x1="455.489" y1="45.36" x2="340.223" y2="58.105"/><linearGradient xlink:href="#a" id="y" gradientUnits="userSpaceOnUse" x1="455.489" y1="45.36" x2="340.223" y2="58.105"/><linearGradient xlink:href="#a" id="z" gradientUnits="userSpaceOnUse" x1="455.489" y1="45.36" x2="340.223" y2="58.105"/><linearGradient xlink:href="#a" id="A" gradientUnits="userSpaceOnUse" x1="455.489" y1="45.36" x2="340.223" y2="58.105"/><linearGradient xlink:href="#a" id="B" gradientUnits="userSpaceOnUse" x1="455.489" y1="45.36" x2="340.223" y2="58.105"/><linearGradient xlink:href="#a" id="C" gradientUnits="userSpaceOnUse" x1="455.489" y1="45.36" x2="340.223" y2="58.105"/><linearGradient xlink:href="#a" id="x" gradientUnits="userSpaceOnUse" x1="455.489" y1="45.36" x2="340.223" y2="58.105"/><linearGradient xlink:href="#a" id="p" gradientUnits="userSpaceOnUse" x1="455.489" y1="45.36" x2="340.223" y2="58.105"/><linearGradient xlink:href="#c" id="D" gradientUnits="userSpaceOnUse" x1="74.964" y1="80.857" x2="75.5" y2="27.286"/><linearGradient xlink:href="#a" id="E" gradientUnits="userSpaceOnUse" x1="75.5" y1="34.071" x2="73.179" y2="75.143"/><linearGradient xlink:href="#c" id="F" gradientUnits="userSpaceOnUse" x1="75.5" y1="43" x2="75.5" y2="88"/><linearGradient xlink:href="#a" id="G" gradientUnits="userSpaceOnUse" x1="74.786" y1="77.286" x2="74.964" y2="38.536"/><linearGradient xlink:href="#a" id="I" gradientUnits="userSpaceOnUse" gradientTransform="translate(129.7 29.876)" x1="-8.649" y1="56.621" x2="-8.649" y2="50.749"/><linearGradient xlink:href="#d" id="J" gradientUnits="userSpaceOnUse" gradientTransform="translate(128.583 33.885)" x1="-8.649" y1="56.621" x2="-8.649" y2="50.749"/><linearGradient xlink:href="#a" id="K" gradientUnits="userSpaceOnUse" gradientTransform="translate(32.516 6.129)" x1="85.151" y1="81.069" x2="80.227" y2="81.069"/><linearGradient xlink:href="#a" id="L" gradientUnits="userSpaceOnUse" gradientTransform="translate(33.014 7.65)" x1="85.467" y1="74.503" x2="77.196" y2="74.44"/><linearGradient xlink:href="#e" id="M" gradientUnits="userSpaceOnUse" gradientTransform="translate(33.014 16.8)" x1="85.214" y1="74.376" x2="77.196" y2="74.44"/><linearGradient xlink:href="#f" id="N" gradientUnits="userSpaceOnUse" gradientTransform="matrix(1 0 0 1.2973 -.151 -23.71)" x1="117.539" y1="85.236" x2="108.764" y2="85.236"/><linearGradient xlink:href="#g" id="P" gradientUnits="userSpaceOnUse" gradientTransform="translate(129.7 29.876)" x1="-8.649" y1="56.621" x2="-8.649" y2="50.749"/><linearGradient xlink:href="#h" id="Q" gradientUnits="userSpaceOnUse" gradientTransform="translate(128.583 33.885)" x1="-8.649" y1="56.621" x2="-8.649" y2="50.749"/><linearGradient xlink:href="#g" id="R" gradientUnits="userSpaceOnUse" gradientTransform="translate(32.516 6.129)" x1="85.151" y1="81.069" x2="80.227" y2="81.069"/><linearGradient xlink:href="#g" id="S" gradientUnits="userSpaceOnUse" gradientTransform="translate(33.014 7.65)" x1="85.467" y1="74.503" x2="77.196" y2="74.44"/><linearGradient xlink:href="#i" id="T" gradientUnits="userSpaceOnUse" gradientTransform="translate(33.014 16.8)" x1="85.214" y1="74.376" x2="77.196" y2="74.44"/><linearGradient xlink:href="#j" id="U" gradientUnits="userSpaceOnUse" gradientTransform="matrix(1 0 0 1.2973 -.151 -23.71)" x1="117.539" y1="85.236" x2="108.764" y2="85.236"/><linearGradient xlink:href="#b" id="V" gradientUnits="userSpaceOnUse" gradientTransform="matrix(.5877 0 0 .5877 143.86 56.1)" x1="86.679" y1="42.413" x2="86.679" y2="59.429"/><linearGradient xlink:href="#k" id="X" gradientUnits="userSpaceOnUse" gradientTransform="translate(-.324)" x1="214" y1="57.362" x2="214" y2="112.362"/></defs><path d="M166 38.362l-30.821 57.929L170 131.362h60l35-35.071-31-57.929z" fill="url(#l)" transform="translate(-541.009 -154.064) scale(4.05709)"/><path d="M142 96.362l27.595-53.023 61.194-.043L258 96.29l-30.035 31.071h-55.93z" fill="url(#m)" transform="translate(-541.009 -154.064) scale(4.05709)"/><path d="M67.555 236.596l101.783 101.717h202.143l101.783-101.717-94.61-188.678-214.674.579z" fill="#19396b"/><path d="M-436.829 348.456a8.114 8.114 0 1 1 0-.044" fill="#ececec"/><path transform="matrix(4.05741 0 0 3.86131 -541.074 -145.82)" d="M149.214 57.362l5.786-12h90l6 12z" fill="url(#n)" stroke="#858585" stroke-width=".5" filter="url(#o)"/><g transform="matrix(1.34999 0 0 1.34999 -327.263 -16.872)" fill="url(#p)" font-size="32" font-weight="400" letter-spacing="0" word-spacing="0" font-family="Serpentine ICG"><g style="line-height:125%" fill="url(#q)"><path style="-inkscape-font-specification:Serpentine ICG" d="M338.11 62.308h-6.591c.256-.939.384-1.813.384-2.624V44.772h-.064l-7.008 17.536h-4.16l-6.88-17.536h-.064v14.912c0 .81.128 1.685.384 2.624h-3.52c.256-.939.384-1.813.384-2.624V44.452c0-.81-.128-1.685-.384-2.624h8.064l5.856 14.88 5.952-14.88h7.648c-.256.939-.384 1.813-.384 2.624v15.232c0 .81.128 1.685.384 2.624" fill="url(#r)"/><path style="-inkscape-font-specification:Serpentine ICG" d="M357.528 59.204l-.512 3.104h-16.8c.256-.939.384-1.813.384-2.624V44.452c0-.81-.128-1.685-.384-2.624h16.8l.512 3.104c-.854-.32-1.856-.48-3.008-.48h-7.904v6.208h7.072c1.109 0 2.058-.16 2.848-.48v3.584c-.79-.32-1.74-.48-2.848-.48h-7.072v6.4h7.904c1.152 0 2.154-.16 3.008-.48" fill="url(#s)"/><path style="-inkscape-font-specification:Serpentine ICG" d="M387.298 62.308h-6.592c.256-.939.384-1.813.384-2.624V44.772h-.064l-7.008 17.536h-4.16l-6.88-17.536h-.064v14.912c0 .81.128 1.685.384 2.624h-3.52c.256-.939.384-1.813.384-2.624V44.452c0-.81-.128-1.685-.384-2.624h8.064l5.856 14.88 5.952-14.88h7.648c-.256.939-.384 1.813-.384 2.624v15.232c0 .81.128 1.685.384 2.624" fill="url(#t)"/><path style="-inkscape-font-specification:Serpentine ICG" d="M410.075 58.276c0 2.688-1.344 4.032-4.032 4.032H393.82c-2.688 0-4.032-1.344-4.032-4.032V45.86c0-2.688 1.344-4.032 4.032-4.032h12.224c2.688 0 4.032 1.344 4.032 4.032v12.416m-6.016.32V45.54c0-.725-.363-1.088-1.088-1.088h-6.08c-.725 0-1.088.363-1.088 1.088v13.056c0 .725.363 1.088 1.088 1.088h6.08c.725 0 1.088-.363 1.088-1.088" fill="url(#u)"/><path style="-inkscape-font-specification:Serpentine ICG" d="M433.807 62.308h-6.816l-3.52-9.024h-4.48v6.4c0 .81.128 1.685.384 2.624h-6.784c.256-.939.384-1.813.384-2.624V44.452c0-.81-.128-1.685-.384-2.624h16.32c1.3 0 2.304.352 3.008 1.056.64.661.96 1.579.96 2.752v4.352c0 1.984-1.056 3.115-3.168 3.392l2.496 6.304c.448 1.13.98 2.005 1.6 2.624m-6.752-13.024v-3.52c0-.875-.374-1.312-1.12-1.312h-6.944v6.208h6.944c.746 0 1.12-.459 1.12-1.376" fill="url(#v)"/><path style="-inkscape-font-specification:Serpentine ICG" d="M457.355 41.828c-.747.725-1.45 1.6-2.112 2.624l-5.92 9.184v6.048c0 .81.128 1.685.384 2.624h-7.04c.256-.939.384-1.813.384-2.624v-6.176l-5.92-9.056a15.684 15.684 0 0 0-2.144-2.624h8.128c0 .747.235 1.483.704 2.208l4.288 6.624 4.512-7.072c.32-.49.49-1.077.512-1.76h4.224" fill="url(#w)"/></g><g style="line-height:125%" fill="url(#x)"><path style="-inkscape-font-specification:Serpentine ICG" d="M485.541 62.308h-7.552c.043-.128.064-.299.064-.512 0-.576-.181-1.28-.544-2.112l-1.408-3.2h-9.312l-1.376 3.2c-.32.747-.48 1.621-.48 2.624h-3.936c.725-1.024 1.248-1.899 1.568-2.624l7.424-16.512-.864-1.344h6.688l8.128 17.856c.619 1.344 1.152 2.219 1.6 2.624m-10.624-8.448l-3.488-7.744-3.424 7.744h6.912" fill="url(#y)"/><path style="-inkscape-font-specification:Serpentine ICG" d="M504.538 59.204l-.512 3.104h-16.8c.256-.939.384-1.813.384-2.624V44.452c0-.81-.128-1.685-.384-2.624h6.784c-.256.939-.384 1.813-.384 2.624v15.232h7.904c1.152 0 2.154-.16 3.008-.48" fill="url(#z)"/><path style="-inkscape-font-specification:Serpentine ICG" d="M526.706 51.012c0 2.71-1.579 4.064-4.736 4.064h-9.344v4.608c0 .81.128 1.685.384 2.624h-6.784c.256-.939.384-1.813.384-2.624V44.452c0-.81-.128-1.685-.384-2.624h15.744c3.157 0 4.736 1.355 4.736 4.064v5.12m-5.824-.256v-4.608c0-.64-.107-1.077-.32-1.312-.214-.256-.608-.384-1.184-.384h-6.752v8h6.752c.576 0 .97-.117 1.184-.352.213-.256.32-.704.32-1.344" fill="url(#A)"/><path style="-inkscape-font-specification:Serpentine ICG" d="M550.122 62.308h-6.784c.256-.939.384-1.813.384-2.624v-6.4h-8.096v6.4c0 .81.128 1.685.384 2.624h-6.784c.256-.939.384-1.813.384-2.624V44.452c0-.81-.128-1.685-.384-2.624h6.784c-.256.939-.384 1.813-.384 2.624v6.208h8.096v-6.208c0-.81-.128-1.685-.384-2.624h6.784c-.256.939-.384 1.813-.384 2.624v15.232c0 .81.128 1.685.384 2.624" fill="url(#B)"/><path style="-inkscape-font-specification:Serpentine ICG" d="M576.354 62.308h-7.552c.042-.128.064-.299.064-.512 0-.576-.182-1.28-.544-2.112l-1.408-3.2h-9.312l-1.376 3.2c-.32.747-.48 1.621-.48 2.624h-3.936c.725-1.024 1.248-1.899 1.568-2.624l7.424-16.512-.864-1.344h6.688l8.128 17.856c.618 1.344 1.152 2.219 1.6 2.624M565.73 53.86l-3.488-7.744-3.424 7.744h6.912" fill="url(#C)"/></g></g><path transform="translate(-35.901 -38.996) scale(4.05709)" d="M101 58.5C101 72.583 89.583 84 75.5 84S50 72.583 50 58.5 61.417 33 75.5 33c14.03 0 25.425 11.334 25.5 25.364" fill="url(#D)"/><path transform="translate(-35.901 -38.996) scale(4.05709)" d="M99.5 58.5c0 13.255-10.745 24-24 24s-24-10.745-24-24 10.745-24 24-24c13.205 0 23.929 10.667 24 23.872" fill="url(#E)"/><path transform="translate(-35.901 -38.996) scale(4.05709)" d="M98 58.5C98 70.926 87.926 81 75.5 81S53 70.926 53 58.5 63.074 36 75.5 36C87.88 36 97.933 46 98 58.38" fill="url(#F)"/><path transform="translate(-35.901 -38.996) scale(4.05709)" d="M96.5 58.5c0 11.598-9.402 21-21 21s-21-9.402-21-21 9.402-21 21-21c11.554 0 20.938 9.334 21 20.888" fill="url(#G)"/><path d="M349.523 198.343c0 43.693-35.42 79.114-79.114 79.114-43.693 0-79.113-35.42-79.113-79.114 0-43.693 35.42-79.113 79.113-79.113 43.528 0 78.88 35.163 79.113 78.69" fill="#19396b"/><g transform="translate(-290.637 -153.25) scale(4.05709)" filter="url(#H)"><path fill="url(#I)" d="M116.631 83.34h5.682v2.462h-5.682z"/><path fill="url(#J)" d="M115.514 87.349h5.682v2.462h-5.682z"/><path fill="url(#K)" d="M113.122 81.326h5.556v10.607h-5.556z"/><path fill="url(#L)" d="M111.221 81.332h8.081v1.515h-8.081z"/><path fill="url(#M)" d="M111.221 90.482h8.081v1.515h-8.081z"/><path fill="url(#N)" d="M109.118 84.981h7.26v3.03h-7.26z"/></g><g transform="matrix(-4.0571 0 0 4.0571 835.256 -153.25)" filter="url(#O)"><path fill="url(#P)" d="M116.631 83.34h5.682v2.462h-5.682z"/><path fill="url(#Q)" d="M115.514 87.349h5.682v2.462h-5.682z"/><path fill="url(#R)" d="M113.122 81.326h5.556v10.607h-5.556z"/><path fill="url(#S)" d="M111.221 81.332h8.081v1.515h-8.081z"/><path fill="url(#T)" d="M111.221 90.482h8.081v1.515h-8.081z"/><path fill="url(#U)" d="M109.118 84.981h7.26v3.03h-7.26z"/></g><path style="line-height:125%;-inkscape-font-specification:Beware" d="M188.914 81.806c-1.081 0-1.827.217-2.219.656l-5.78 6.438c-.173.188-.25.374-.25.562 0 .517.48.921 1.437 1.188.454.125.92.187 1.437.187 1.113 0 1.874-.217 2.25-.656l4.406-5.156 2.563 2.75c.282.313.763.468 1.469.468.391 0 .78-.062 1.156-.187.501-.157.75-.374.75-.688a.552.552 0 0 0-.156-.406l-4.47-4.437c-.093-.079-.202-.125-.343-.188-.58-.345-1.325-.531-2.25-.531zm8.781 0c-.61 0-1.17.093-1.718.281-.768.235-1.157.608-1.157 1.094a.8.8 0 0 0 .22.562l5.812 6.438c1.583.94 3.37.673 5.125.812h3.718a4.73 4.73 0 0 0 1.22-.156c.548-.172.812-.405.812-.687 0-.298-.264-.531-.813-.688a4.73 4.73 0 0 0-1.219-.156h-2c-.344 0-.655-.047-.968-.156-.44-.157-.657-.39-.657-.657V87.4c0-.267.218-.469.657-.625.313-.11.624-.188.968-.188h4.063c.345 0 .686.078 1 .188.439.156.656.358.656.625v2.312c0 .455.357.812 1.094 1.031.533.173 1.092.25 1.656.25.564 0 1.123-.077 1.656-.25.737-.235 1.094-.592 1.094-1.03V84.65c0-.925-.699-1.64-2.125-2.125a10.068 10.068 0 0 0-3.281-.532h-9c-.408 0-.796.047-1.156.157-.533.14-.782.358-.782.656 0 .298.264.515.813.656.376.094.749.156 1.156.156h7.219c.345 0 .686.047 1 .157.439.14.656.343.656.625v.593h-7.437c-1.129 0-2.232.187-3.282.532-.01.003-.021-.004-.03 0l-2.75-3.063c-.393-.439-1.138-.656-2.22-.656z" transform="matrix(4.6313 0 0 4.6313 -657.44 -203.296)" font-size="23.508" font-weight="400" letter-spacing="0" word-spacing="0" fill="url(#V)" filter="url(#W)" font-family="Beware"/><path d="M178.203 66.133c2.299-1.885 4.92-5.916 4.92-5.916s-.84.046-1.96.662c-1.393.767-3.128 2.136-3.128 2.136l.17-1.696s-1.382 1.095-2.263 2.543c-.9 1.477-1.3 3.31-1.3 3.31s1.656.522 3.56-1.04zm-4.36 5.493c1.305-1.18 2.241-2.844 2.241-2.844s-.797.397-1.539.517c-.54.087-1.09-.093-1.09-.093s-.286-.596-.228-1.614c.068-1.213.483-2.88.483-2.88s-1.546 1.667-2.214 3.672a13.067 13.067 0 0 0-.434 1.715c-.41 1.907-.32 3.517-.32 3.517s1.736-.755 3.101-1.99zm-2.442 6.214c1.059-1.167 1.715-2.951 1.715-2.951s-.897.5-1.819.713c-.701.162-1.489.05-1.489.05s-.246-.726-.344-1.764c-.175-1.852-.08-4.766-.08-4.766s-1.595 2.9-1.661 5.52c-.061 2.417 1.237 4.826 1.237 4.826s1.423-.506 2.44-1.628zm-3.034 7.31s1.551-1.17 2.388-2.535c.772-1.26.834-2.723.834-2.723s-.748.41-1.544.719c-.727.283-1.509.469-1.509.469s-.865-.946-1.398-2.188c-.807-1.885-1.4-4.343-1.4-4.343s-.858 3.291-.195 5.965c.651 2.626 2.824 4.636 2.824 4.636zm.424 6.446s1.07-1.128 1.646-2.549c.61-1.503.728-3.303.728-3.303l-2.46 2.205s-1.32-.875-2.455-2.377c-1.555-2.057-3.057-4.917-3.057-4.917s-.189 4.476 1.222 7.233c1.388 2.713 4.376 3.708 4.376 3.708zm1.611 5.936s.944-1.093 1.24-2.501c.374-1.773.117-3.944.117-3.944s-.43.9-.979 1.722c-.462.693-1.056 1.33-1.056 1.33s-1.543-.62-3.048-2.04c-2.12-1.999-4.5-5.253-4.5-5.253s.22 4.853 2.237 7.438c2.053 2.63 5.99 3.248 5.99 3.248zm3.308 5.682s.574-1.53.554-3.222c-.022-1.862-.64-3.901-.64-3.901l-1.95 3.731s-1.832.059-3.662-.903c-2.241-1.179-4.564-3.422-4.564-3.422s1.52 4.241 4.154 6.222c2.493 1.875 6.108 1.495 6.108 1.495zm3.986 4.92s.27-1.725.014-3.297c-.293-1.804-1.117-3.488-1.117-3.488s-.156 1.232-.526 2.34c-.302.907-.83 1.73-.83 1.73s-1.046.155-2.379.037c-1.91-.17-4.322-.63-4.322-.63s1.302 1.801 3.647 2.648c2.232.806 5.513.66 5.513.66zm1.865-2.97l-.339 4.326s-.982.387-2.292.44c-1.727.071-3.899-.186-3.899-.186s1.9 1.621 4.164 2.145c2.315.536 4.995-.024 4.995-.024s.286-1.53-.318-2.992c-.703-1.7-2.31-3.708-2.31-3.708zm15.903 8.911c-1.448-.8-3.605-1.277-3.605-1.277s-2.173-.355-4.234-.956c-2.01-.586-3.908-1.419-3.908-1.419s.426 1.061.197 1.795c-.191.612-1.045.919-1.045.919l1.866.594s4.71.137 7.464.585c2.443.397 2.967 1.11 2.967 1.11s-.298.314-1.348.483c-1.498.242-3.74.196-3.74.196l1.61 1.526s1.767.216 3.292-.226c1.395-.404 2.56-1.47 2.56-1.47s-.684-1.092-2.076-1.86zm26.333-47.942c1.905 1.561 3.56 1.038 3.56 1.038s-.399-1.832-1.299-3.31c-.88-1.448-2.262-2.542-2.262-2.542l.17 1.696s-1.736-1.37-3.13-2.136c-1.12-.616-1.96-.662-1.96-.662s2.623 4.03 4.921 5.916zm4.36 5.493c1.366 1.235 3.102 1.99 3.102 1.99s.089-1.608-.32-3.513a13.071 13.071 0 0 0-.435-1.72c-.668-2.004-2.213-3.671-2.213-3.671s.414 1.667.483 2.88c.057 1.018-.229 1.614-.229 1.614s-.55.18-1.09.093c-.742-.12-1.539-.517-1.539-.517s.936 1.663 2.241 2.844zm.727 3.262s.657 1.785 1.715 2.952c1.018 1.121 2.44 1.628 2.44 1.628s1.299-2.409 1.238-4.827c-.066-2.62-1.661-5.52-1.661-5.52s.095 2.915-.08 4.767a8.557 8.557 0 0 1-.344 1.764s-.788.112-1.49-.05c-.92-.213-1.818-.714-1.818-.714zm3.07 5.723c-.795-.31-1.543-.719-1.543-.719s.062 1.464.834 2.723c.837 1.366 2.388 2.535 2.388 2.535s2.173-2.01 2.824-4.636c.663-2.674-.195-5.965-.195-5.965s-.593 2.458-1.4 4.343c-.533 1.242-1.398 2.188-1.398 2.188s-.781-.187-1.51-.47zm1.34 7.338l-2.46-2.205s.12 1.8.73 3.303c.575 1.421 1.645 2.549 1.645 2.549s2.988-.995 4.376-3.708c1.41-2.757 1.222-7.232 1.222-7.232s-1.503 2.86-3.057 4.916c-1.135 1.502-2.456 2.377-2.456 2.377zm2.03 4.15c-1.506 1.42-3.048 2.041-3.048 2.041s-.595-.638-1.057-1.33c-.548-.823-.978-1.723-.978-1.723s-.257 2.171.116 3.944c.297 1.408 1.24 2.501 1.24 2.501s3.937-.617 5.99-3.248c2.018-2.585 2.237-7.438 2.237-7.438s-2.38 3.254-4.5 5.253zm-4.998 7.723l-1.95-3.731s-.618 2.04-.64 3.901c-.02 1.692.555 3.222.555 3.222s3.614.38 6.107-1.495c2.634-1.98 4.154-6.222 4.154-6.222s-2.323 2.243-4.564 3.422c-1.83.962-3.662.903-3.662.903zm-3.562 5.597s-.529-.823-.831-1.73c-.37-1.108-.526-2.34-.526-2.34s-.824 1.684-1.117 3.488c-.255 1.572.015 3.296.015 3.296s3.28.147 5.512-.66c2.345-.846 3.647-2.647 3.647-2.647s-2.411.46-4.322.63c-1.332.118-2.378-.037-2.378-.037zm-1.693 4.512c-1.31-.054-2.293-.44-2.293-.44l-.34-4.326s-1.607 2.008-2.31 3.708c-.604 1.462-.318 2.992-.318 2.992s2.68.56 4.995.024c2.264-.524 4.164-2.145 4.164-2.145s-2.171.258-3.898.187zm-6.985 2.287c-.23-.734.197-1.795.197-1.795s-1.899.833-3.908 1.419c-2.06.601-4.233.956-4.233.956s-2.158.477-3.606 1.277c-1.391.768-2.077 1.86-2.077 1.86s1.166 1.066 2.561 1.47c1.525.443 3.291.227 3.291.227l1.612-1.527s-2.243.046-3.742-.196c-1.049-.169-1.347-.482-1.347-.482s.524-.714 2.967-1.111c2.754-.448 7.464-.585 7.464-.585l1.866-.594s-.854-.307-1.045-.92z" fill="url(#X)" filter="url(#Y)" transform="translate(-541.009 -154.064) scale(4.05709)"/></svg>

